<svg width="127" height="55" viewBox="0 0 127 55" fill="none" xmlns="http://www.w3.org/2000/svg">
<path d="M10.7884 47.9259C9.06925 47.9259 7.1342 47.9259 7.1342 47.9259V36.7463C7.1342 36.7463 9.01097 36.7463 10.7884 36.7463C13.2926 36.7463 14.4522 38.6012 14.4522 41.9208C14.4522 46.479 13.0608 47.9259 10.7884 47.9259ZM7.1342 20.5266C7.1342 20.5266 8.97987 20.5266 10.6991 20.5266C12.5393 20.5266 14.0288 21.872 14.0288 25.5784C14.0288 29.3241 12.3075 30.6197 10.6991 30.6197C8.92159 30.6197 7.1342 30.6197 7.1342 30.6197V20.5266ZM16.8861 33.2607V33.23C18.3349 32.2197 20.6509 30.4821 20.6509 24.8978C20.6509 17.6825 16.8615 14.4147 11.7426 14.4147C10.0086 14.4147 0.563232 14.4147 0.563232 14.4147V54.0344C0.563232 54.0344 6.79373 54.0344 11.6841 54.0344C17.9869 54.0344 21.0562 49.3926 21.0562 42.4767C21.0562 36.0244 18.5084 34.2427 16.8861 33.2607Z" fill="#3F3E46"/>
<path d="M33.2314 20.5266C33.2314 20.5266 35.1151 20.5266 36.8719 20.5266C38.7511 20.5266 40.2668 21.872 40.2668 25.5783C40.2668 29.324 38.5144 30.6196 36.8719 30.6196C35.0565 30.6196 33.2314 30.6196 33.2314 30.6196V20.5266ZM46.9095 40.7749C46.9095 35.8374 45.3343 34.4506 43.1898 33.2606V33.2299C44.6696 32.2197 47.014 30.4821 47.014 24.8977C47.014 17.6825 43.165 14.4147 37.9375 14.4147C36.1656 14.4147 26.521 14.4147 26.521 14.4147V54.0342H33.2269L33.2312 36.7462C33.2312 36.7462 35.0563 36.7462 36.8705 36.7462C38.7792 36.7462 40.1436 38.2891 40.1436 41.7907V54.0344H46.9058L46.9095 40.7749Z" fill="#3F3E46"/>
<path d="M59.0966 10.4563C59.0966 7.4514 61.8733 7.06331 63.4075 7.06331C64.9419 7.06331 67.7078 7.44389 67.7078 10.4563L67.7054 30.4129H59.0921L59.0966 10.4563ZM63.4075 0.752747C60.6062 0.752747 52.4788 1.3838 52.4788 9.4638V54.0344H59.1049V36.5954H67.7086L67.7063 54.0271H74.3379V9.4638C74.3381 1.36878 66.2001 0.752747 63.4075 0.752747Z" fill="#3F3E46"/>
<path d="M93.9164 14.4147V45.3056C93.9164 46.8776 92.6335 47.9279 90.7275 47.9279C88.813 47.9279 87.5538 46.8758 87.5538 45.3056L87.5489 14.4147L81.1704 14.423L81.169 46.3376C81.169 52.4141 87.3345 54.0344 90.7345 54.0344C94.1035 54.0344 100.296 52.4058 100.296 46.3304V14.4147L93.9164 14.4147Z" fill="#3F3E46"/>
<path d="M119.875 52.6633L119.873 21.7792C119.873 20.2068 118.591 19.1566 116.685 19.1566C114.771 19.1566 113.51 20.2098 113.51 21.7792L113.508 52.6633L107.127 52.6682V20.747C107.127 14.6692 113.294 13.0485 116.694 13.0485C120.063 13.0485 126.254 14.6775 126.254 20.7542V52.6631L119.875 52.6633Z" fill="#3F3E46"/>
</svg>
